<svg id="Capa_1" enable-background="new 0 0 512 512" height="512" viewBox="0 0 512 512" width="512" xmlns="http://www.w3.org/2000/svg"><g><g><g><g><path d="m269.093 98.637c-6.091-10.152-20.848-10.019-26.756.24l-25.654 44.549h79.284z" fill="#d4b981"/></g><g><path d="m326.103 278.507v165.177h56.952v-165.156z" fill="#e9dcc0"/></g><g><path d="m326.103 422.172h56.952v21.512h-56.952z" fill="#d4b981"/></g><g><path d="m127.247 278.507v165.177h56.952v-165.156z" fill="#e9dcc0"/></g><g><path d="m150.978 421.176v-142.66l-23.731-.009v165.177h56.952v-22.508z" fill="#d4b981"/></g><g><path d="m143.532 203.489v74.9h56.952v-74.89z" fill="#e9dcc0"/></g><g><path d="m165.936 260.78v-57.287l-22.404-.004v74.9h56.952v-17.609z" fill="#d4b981"/></g><g><path d="m310.951 203.489v74.9h56.951v-74.89z" fill="#e9dcc0"/></g><g><path d="m310.951 257.453h56.952v20.936h-56.952z" fill="#d4b981"/></g><g><path d="m281.409 143.412h56.952v60.959h-56.952z" fill="#e9dcc0"/></g><g><path d="m281.409 182.299h56.952v22.072h-56.952z" fill="#d4b981"/></g><g><path d="m173.008 143.412h56.952v60.959h-56.952z" fill="#e9dcc0"/></g><g><path d="m173.009 143.41h22.321v60.089h-22.321z" fill="#d4b981"/></g><g><path d="m255.797 248.426c-53.683 0-97.201 43.518-97.201 97.201v97.968l194.402-.007v-97.96c0-53.684-43.519-97.202-97.201-97.202z" fill="#c8d1da"/></g><g><path d="m180.458 421.732v-97.968c0-21.262 6.832-40.925 18.413-56.926-24.398 17.659-40.274 46.367-40.274 78.788v97.968l194.402-.007v-21.861z" fill="#92a2b5"/></g><g><path d="m255.797 248.426c27.654 0 52.61 11.549 70.31 30.086h11.851v-7.522c0-45.581-36.951-82.532-82.532-82.532-45.581 0-82.532 36.951-82.532 82.532v7.518h12.597c17.699-18.535 42.654-30.082 70.306-30.082z" fill="#c8d1da"/></g><g><path d="m336.834 257.453h-2.747c-31.51-31.778-92.568-39.552-132.703-16.882 10.769-27.146 35.518-47.215 65.377-51.319-44.208-6.533-86.081 25.211-92.743 68.198-1.193 6.636-1.181 14.295-1.124 21.058h12.597c3.158-3.292 6.534-6.375 10.117-9.2 36.292-30.913 99.201-26.236 130.499 9.204h11.851c.053-6.739.083-14.541-1.124-21.059z" fill="#92a2b5"/></g><g><path d="m255.426 188.458c18.219 0 35.049 5.916 48.702 15.914h3.756v-23.489c0-28.971-23.486-52.457-52.457-52.457-28.971 0-52.457 23.486-52.457 52.457v23.485h3.76c13.65-9.996 30.479-15.91 48.696-15.91z" fill="#c8d1da"/></g><g><path d="m255.426 167.011c-10.817 0-21.177 1.784-30.771 5.032 3.623-21.341 20.128-38.295 41.239-42.57-31.97-6.826-63.31 18.639-62.925 51.41v23.485h3.76c27.839-21.024 69.376-21.136 97.399.003h3.756c0-5.293 0-16.328 0-21.67-14.742-9.859-32.857-15.69-52.458-15.69z" fill="#92a2b5"/></g><g><path d="m255.511 308.628c-28.924 0-52.372 23.448-52.372 52.372v112.527l104.745.151v-112.678c-.001-28.924-23.449-52.372-52.373-52.372z" fill="#e9dcc0"/></g><g><path d="m225.585 451.606v-112.526c0-8.965 2.256-17.401 6.226-24.778-17.011 8.651-28.673 26.307-28.673 46.699v112.527l104.745.151v-21.953z" fill="#d4b981"/></g><g><path d="m113.037 443.587v29.981l90.101-.041v-29.927z" fill="#c8d1da"/></g><g><path d="m113.037 443.587v29.981l22.452-.041v-29.927z" fill="#92a2b5"/></g><g><path d="m308.019 443.587v29.981l90.101-.041v-29.927z" fill="#c8d1da"/></g><g><path d="m308.327 443.587v29.981l22.452-.041v-29.927z" fill="#92a2b5"/></g><g><path d="m.511 473.527h511v38.473h-511z" fill="#e9fda4"/></g><g><path d="m15.064 496.149v-22.622h-14.553v38.473h511v-15.851z" fill="#aae79a"/></g><g><path d="m450.537 61h15v15h-15z" fill="#efc17a"/></g><g><path d="m45.479 61h15v15h-15z" fill="#efc17a"/></g></g></g><g><path d="m450.618 466.109h15v15h-15z"/><path d="m405.501 436.115-14.967-.001v-165.083l-14.898-.005v-30.086h-15v30.081l-15.198-.006v-.025c0-23.029-8.695-44.062-22.97-60h38.168v15.01h15v-30.011h-29.73v-60.064h-45.713l-24.688-41.146c-2.915-4.858-7.352-8.34-12.514-10.027v-84.752h-15v84.934c-5.064 1.796-9.375 5.341-12.173 10.2l-23.491 40.791h-46.762v60.064h-29.553v74.916l-15.575-.032v165.214l-14.92-.002v29.961l-105.025-.02-.002 15 435 .083.002-15-29.99-.006v-29.988zm-134.925-90.115v120.078l-29.947-.006v-120.072h-15v120.069l-15.011-.003v-105.066c0-24.743 20.13-44.872 44.872-44.872s44.872 20.129 44.872 44.872v105.083l-14.786-.003v-120.08zm44.786 105.106 75.139.008v14.988l-75.139-.014zm45.115-14.996v-90.484c0-22.135-6.911-42.684-18.679-59.614l33.737.012v150.087zm-30.039-165.101s-19.373-18.134-37.693-23.337l9.427-16.328-12.99-7.5-11.23 19.453c-4.871-1.055-9.865-1.77-14.96-2.118v-30.179h-15v30.215c-5.074.375-10.047 1.117-14.896 2.192l-11.179-19.36-12.99 7.501 9.414 16.303c-22.742 8.149-37.965 23.146-37.965 23.146 1.299-49.486 38.175-74.214 75.047-74.205 36.868.008 73.735 24.754 75.015 74.217zm-75.033-135.084c24.789 0 44.957 20.168 44.957 44.958v12.126c-6.776-3.922-14.109-6.982-21.846-9.039l6.8-11.78-12.99-7.5-9.336 16.172v-29.862h-15s.126 30.288 0 30.299l-9.966-16.608-12.99 7.5 6.863 11.888c-7.592 2.055-14.79 5.077-21.45 8.931v-12.126c0-24.791 20.168-44.959 44.958-44.959zm75.5 60.064h-15.543v-15.106c0-10.908-2.943-21.136-8.054-29.958h23.597zm-82.089-93.37c3.401-5.417 10.37-5.43 13.824-.123 0 0 13.215 22.025 13.215 22.025-12.131-4.563-27.061-4.772-39.349-.526zm-68.252 48.306h22.937c-5.111 8.822-8.054 19.049-8.054 29.958v15.106h-14.883zm-29.552 60.064h37.331c-14.27 15.932-22.964 36.957-22.969 59.977l-14.362-.029zm-15.575 74.916 34.344.07c-11.784 16.937-18.705 37.5-18.705 59.651v30.374h15v-30.374c0-49.461 40.24-89.701 89.701-89.701s89.7 40.24 89.7 89.701v90.482l-30.114-.003v-67.605h15.128v-15h-15.614c-.691-5.498-2.113-10.771-4.195-15.704l16.864-9.736-7.5-12.99-16.891 9.752c-3.292-4.327-7.158-8.192-11.485-11.485l13.617-23.586-12.99-7.5-13.601 23.56c-4.933-2.082-10.206-3.504-15.704-4.195v-30.616h-15v30.614c-5.498.691-10.771 2.113-15.704 4.195l-13.602-23.56-12.99 7.5 13.618 23.586c-4.327 3.292-8.192 7.158-11.485 11.485l-16.731-9.66-7.5 12.99 16.705 9.645c-2.082 4.933-3.504 10.206-4.195 15.704h-15.618v15h15.128v67.599l-29.543-.005v-44.942h-15v44.939l-15.639-.002v-150.183zm-14.92 165.182 75.102.011v14.965l-75.102-.014z"/><path d="m405.485 136h15v-15h15v-15h-15v-15h-15v15h-15v15h15z"/><path d="m90.49 136h15v-15h15v-15h-15v-15h-15v15h-15v15h15z"/><path d="m511.47 466.109h-31v15h31.041z"/></g></g></svg>