<svg width="60" height="60" viewBox="0 0 60 60" fill="none" xmlns="http://www.w3.org/2000/svg">
<circle cx="30" cy="30" r="30" fill="#1D617A"/>
<path d="M29.9167 25.3333C29.2978 25.3333 28.7043 25.5792 28.2668 26.0168C27.8292 26.4543 27.5833 27.0478 27.5833 27.6667V41.6667C27.5833 42.2855 27.8292 42.879 28.2668 43.3166C28.7043 43.7542 29.2978 44 29.9167 44C30.5355 44 31.129 43.7542 31.5666 43.3166C32.0042 42.879 32.25 42.2855 32.25 41.6667V27.6667C32.25 27.0478 32.0042 26.4543 31.5666 26.0168C31.129 25.5792 30.5355 25.3333 29.9167 25.3333ZM29.9167 16C29.3398 16 28.7759 16.1711 28.2963 16.4915C27.8166 16.812 27.4428 17.2676 27.222 17.8005C27.0013 18.3335 26.9435 18.9199 27.056 19.4857C27.1686 20.0515 27.4464 20.5712 27.8543 20.9791C28.2622 21.387 28.7819 21.6648 29.3477 21.7773C29.9134 21.8898 30.4999 21.8321 31.0328 21.6113C31.5658 21.3906 32.0213 21.0167 32.3418 20.5371C32.6623 20.0574 32.8333 19.4935 32.8333 18.9167C32.8333 18.1431 32.526 17.4013 31.9791 16.8543C31.4321 16.3073 30.6902 16 29.9167 16Z" fill="white"/>
</svg>
