<svg width="60" height="60" viewBox="0 0 60 60" fill="none" xmlns="http://www.w3.org/2000/svg">
<circle cx="30" cy="30" r="30" fill="#81F499"/>
<path d="M39.324 22.0658C39.4583 21.9287 39.6187 21.8198 39.7957 21.7455C39.9726 21.6711 40.1627 21.6328 40.3546 21.6328C40.5466 21.6328 40.7366 21.6711 40.9136 21.7455C41.0905 21.8198 41.2509 21.9287 41.3853 22.0658C41.9483 22.6348 41.9562 23.5542 41.4049 24.133L29.7637 37.8946C29.6316 38.0397 29.4712 38.1563 29.2924 38.2374C29.1136 38.3184 28.9201 38.3621 28.7238 38.3658C28.5276 38.3694 28.3326 38.333 28.1509 38.2588C27.9692 38.1845 27.8045 38.074 27.667 37.9339L20.5834 30.7559C20.3103 30.4773 20.1572 30.1026 20.1572 29.7124C20.1572 29.3222 20.3103 28.9476 20.5834 28.669C20.7178 28.5319 20.8782 28.423 21.0551 28.3486C21.2321 28.2743 21.4221 28.236 21.6141 28.236C21.806 28.236 21.9961 28.2743 22.173 28.3486C22.35 28.423 22.5104 28.5319 22.6447 28.669L28.6534 34.7583L39.2846 22.1091C39.2968 22.0939 39.31 22.0794 39.324 22.0658Z" fill="white"/>
</svg>
