<svg width="60" height="58" viewBox="0 0 60 58" fill="none" xmlns="http://www.w3.org/2000/svg">
<path d="M59.322 48.7267L34.9717 3.91789C34.487 3.02487 33.7703 2.27924 32.8971 1.75966C32.0239 1.24008 31.0266 0.96582 30.0105 0.96582C28.9944 0.96582 27.9972 1.24008 27.124 1.75966C26.2508 2.27924 25.534 3.02487 25.0493 3.91789L0.716509 48.7267C0.235329 49.5883 -0.0115756 50.5609 0.000416943 51.5477C0.0124095 52.5345 0.28288 53.5009 0.784857 54.3505C1.28683 55.2001 2.00278 55.9033 2.8613 56.39C3.71981 56.8766 4.6909 57.1297 5.67773 57.1239H54.3608C55.3376 57.123 56.2974 56.8685 57.1464 56.3855C57.9954 55.9025 58.7046 55.2074 59.2045 54.3683C59.7045 53.5291 59.9781 52.5746 59.9987 51.5981C60.0193 50.6215 59.7862 49.6563 59.322 48.7968V48.7267ZM27.7666 15.05C27.7666 14.399 28.0251 13.7748 28.4854 13.3145C28.9457 12.8542 29.57 12.5957 30.2209 12.5957C30.8718 12.5957 31.4961 12.8542 31.9564 13.3145C32.4166 13.7748 32.6752 14.399 32.6752 15.05V36.087C32.6752 36.7379 32.4166 37.3621 31.9564 37.8224C31.4961 38.2827 30.8718 38.5413 30.2209 38.5413C29.57 38.5413 28.9457 38.2827 28.4854 37.8224C28.0251 37.3621 27.7666 36.7379 27.7666 36.087V15.05ZM30.2209 49.8487C29.5968 49.8487 28.9867 49.6636 28.4678 49.3168C27.9488 48.9701 27.5444 48.4773 27.3055 47.9007C27.0667 47.3241 27.0042 46.6896 27.126 46.0775C27.2477 45.4654 27.5483 44.9031 27.9896 44.4618C28.4309 44.0205 28.9932 43.7199 29.6053 43.5982C30.2174 43.4764 30.8519 43.5389 31.4285 43.7778C32.0051 44.0166 32.4979 44.4211 32.8446 44.94C33.1914 45.4589 33.3764 46.069 33.3764 46.6931C33.3764 47.1075 33.2948 47.5178 33.1362 47.9007C32.9776 48.2835 32.7452 48.6314 32.4522 48.9244C32.1592 49.2174 31.8113 49.4499 31.4285 49.6085C31.0456 49.767 30.6353 49.8487 30.2209 49.8487Z" fill="#FABC2A"/>
</svg>
